<svg width="20" height="30" viewBox="0 0 20 30" fill="none" xmlns="http://www.w3.org/2000/svg">
  <g clip-path="url(#clip0_1685_575)">
    <path
      d="M10.9812 0.00524902C9.05255 0.154841 9.18305 2.24353 9.68855 2.78302C8.252 3.76907 4.79545 6.14063 2.46161 7.7383C0.441931 9.12088 -0.306536 12.5842 0.404215 14.8459C1.09437 17.0421 4.54196 18.6769 6.37589 19.173C6.37589 19.173 4.26138 20.3734 2.4013 21.8357C0.541204 23.298 -0.226405 25.2159 1.11577 27.368C2.45794 29.5202 4.62727 29.3677 6.37298 28.5902C8.11869 27.8127 11.6976 25.1525 13.7964 23.6958C15.5375 22.3786 15.988 19.5071 15.1866 17.0779C14.5367 15.1079 10.9443 13.2467 9.15607 12.5842C9.88895 12.058 11.8158 10.6997 13.5015 9.48761C14.0794 11.114 15.9999 10.9862 16.5856 10.1167C17.3169 8.52096 18.8487 4.89685 19.6211 3.10974C19.9586 1.74926 19.1141 1.01258 18.2628 0.857968C17.0426 0.636375 13.9353 0.349144 10.9812 0.00524902Z"
      fill="#696CFF" />
    <path
      d="M9.69175 2.78411C9.07244 2.04547 9.20869 0.0928559 11.0153 0.00384521C12.0027 0.118784 13.0111 0.227962 13.9603 0.330736C15.8511 0.535457 17.5071 0.714766 18.2949 0.86358C19.1757 1.02996 19.9585 1.84028 19.6197 3.1313C19.3477 3.76067 18.9845 4.60533 18.5993 5.50118C17.8907 7.14914 17.1076 8.97038 16.6806 9.94347C16.2627 10.896 14.2222 11.294 13.4959 9.48915C11.8103 10.7012 9.92305 12.0566 9.19018 12.5828C9.06582 12.5292 8.83905 12.4502 8.54996 12.3496C7.58876 12.0148 5.93855 11.4401 5.07189 10.7624C3.49587 9.30613 4.2276 7.07864 4.79044 6.14693C6.48265 4.98849 7.54244 4.26042 8.54487 3.57178C8.92498 3.31066 9.2968 3.05521 9.69175 2.78411Z"
      fill="white" fill-opacity="0.2" />
    <path
      d="M6.37927 19.1733C7.71785 19.6318 10.3831 20.7458 10.9422 21.4913C11.6411 22.4231 12.0573 23.3964 10.6373 25.8924C10.3983 26.0539 10.1753 26.2049 9.96614 26.3465C8.07102 27.6297 7.31218 28.1435 6.0452 28.7466C4.94018 29.1805 2.40573 29.7129 0.969306 27.1147C-0.406414 24.6263 1.17752 22.8041 2.39865 21.8418L4.42527 20.376L5.39487 19.7628L6.37927 19.1733Z"
      fill="white" fill-opacity="0.2" />
  </g>
  <defs>
    <clipPath id="clip0_1685_575">
      <rect width="20" height="29.4545" fill="white" />
    </clipPath>
  </defs>
</svg>