<svg width="34" height="35" viewBox="0 0 34 35" fill="none" xmlns="http://www.w3.org/2000/svg">
  <rect x="3" y="3.5" width="28" height="28" rx="14" fill="#FF3E1D" />
  <path
    d="M16.9569 8.33333C11.9263 8.33333 7.83334 12.4455 7.83334 17.5C7.83334 22.5545 11.9455 26.6667 17 26.6667C22.0545 26.6667 26.1667 22.5545 26.1667 17.5C26.1667 12.4455 22.0353 8.33333 16.9569 8.33333ZM17 24.8333C12.9566 24.8333 9.66668 21.5434 9.66668 17.5C9.66668 13.4566 12.9364 10.1667 16.9569 10.1667C21.0251 10.1667 24.3333 13.4566 24.3333 17.5C24.3333 21.5434 21.0434 24.8333 17 24.8333Z"
    fill="white" />
  <path d="M16.0833 12.9167H17.9167V19.3333H16.0833V12.9167ZM16.0833 20.25H17.9167V22.0833H16.0833V20.25Z"
    fill="white" />
  <rect x="1.5" y="2" width="31" height="31" rx="15.5" stroke="#FF3E1D" stroke-opacity="0.4" stroke-width="3" />
</svg>